<svg xmlns="http://www.w3.org/2000/svg" width="57" height="24"><defs><radialGradient cx="47.259%" cy="-11.272%" fx="47.259%" fy="-11.272%" r="90.904%" gradientTransform="matrix(1 0 0 .7515 0 -.028)" id="a"><stop stop-color="#f9ae26" offset="0%"/><stop stop-color="#e51e38" offset="100%"/></radialGradient></defs><g fill-rule="evenodd"><path d="M24.69 7.868a3.02 3.02 0 0 1-.36-.035 2.26 2.26 0 0 1-.459-.118 1.71 1.71 0 0 1-.399-.214 1.075 1.075 0 0 1-.299-.327 1.72 1.72 0 0 1-.805.525c-.342.114-.783.171-1.324.171a.91.91 0 0 1-.027 0 .115.115 0 0 1-.026.003H18.94a.811.811 0 0 1-.114-.007 2.73 2.73 0 0 1-.763-.17 1.881 1.881 0 0 1-.439-.237 1.044 1.044 0 0 1-.317-.347c-.267.3-.64.514-1.12.642a3.606 3.606 0 0 1-.669.102l-.744.016a.93.93 0 0 1-.036-.001h-3.694l-1.104.002a2.87 2.87 0 0 1-.304.942c-.123.224-.292.42-.497.573a1.68 1.68 0 0 1-.623.283 3.08 3.08 0 0 1-.677.073 3.63 3.63 0 0 1-.581-.043 3.05 3.05 0 0 1-.425-.096l.331-1.146.241.038c.077.011.155.016.232.016.271 0 .475-.079.613-.237s.229-.411.275-.76l.577-4.432h1.462l-.466 3.586h.874l.022-.001 2.15.002h1.566l.035-.002.691-.021a1.19 1.19 0 0 0 .472-.139.78.78 0 0 0 .24-.203 1.31 1.31 0 0 0 .169-.278c.045-.1.08-.204.105-.311l.055-.3.3-2.331h1.451l-.331 2.559c-.039.307.035.555.224.744.183.183.451.278.805.283a.3.3 0 0 1 .031-.002l2.051.002a2.3 2.3 0 0 0 .557-.059.83.83 0 0 0 .36-.182.76.76 0 0 0 .199-.305c.049-.142.083-.289.1-.439l.339-2.603h1.451l-.333 2.559c-.039.307.035.555.224.744s.468.283.838.283a.228.228 0 0 1 .037 0c.387-.004.673-.074.86-.209.192-.139.313-.398.363-.776l.217-1.67h1.451l-.236 1.799a1.554 1.554 0 0 0-.01.327.66.66 0 0 0 .076.273.45.45 0 0 0 .216.188.96.96 0 0 0 .397.069c.263 0 .455-.066.575-.198s.206-.394.257-.787l.218-1.67h1.451l-.236 1.799a1.625 1.625 0 0 0-.011.327c.006.096.034.189.082.273s.127.148.216.188a.92.92 0 0 0 .391.069c.263 0 .455-.064.575-.192s.206-.392.258-.793l.339-2.603h1.451l-.383 2.944c-.079.585-.291 1.039-.636 1.361s-.799.483-1.361.484a2.1 2.1 0 0 1-.905-.177c-.248-.118-.416-.281-.502-.487-.377.443-.89.665-1.537.665a2.1 2.1 0 0 1-.904-.177.99.99 0 0 1-.511-.498 1.86 1.86 0 0 1-.829.509c-.347.111-.79.167-1.331.167a.857.857 0 0 1-.089-.004zm-11.316-1.04a.217.217 0 0 0-.047-.085c.04.023.066.051.047.085zm-7.6 5.662a3.67 3.67 0 0 0-.773-.21 5.174 5.174 0 0 0-.786-.063 2.7 2.7 0 0 0-.451.037 1.34 1.34 0 0 0-.403.131.95.95 0 0 0-.306.247.78.78 0 0 0-.159.386.66.66 0 0 0 .028.351.77.77 0 0 0 .211.289c.121.105.254.195.397.268l.59.278a7.12 7.12 0 0 1 .775.394 2.48 2.48 0 0 1 .584.473c.159.176.273.389.331.619a2.11 2.11 0 0 1 .012.845 2.32 2.32 0 0 1-.38.977 2.51 2.51 0 0 1-.722.693 3.25 3.25 0 0 1-.949.404 4.31 4.31 0 0 1-1.062.131 7.155 7.155 0 0 1-1.093-.093 5.779 5.779 0 0 1-1.12-.289l.472-1.249c.316.137.645.239.983.304a4.79 4.79 0 0 0 .901.095c.419 0 .748-.072.987-.215a.92.92 0 0 0 .439-.656.68.68 0 0 0-.243-.677 2.142 2.142 0 0 0-.419-.28 7.592 7.592 0 0 0-.609-.283 5.24 5.24 0 0 1-.755-.389 2.48 2.48 0 0 1-.563-.477 1.56 1.56 0 0 1-.323-.604 1.79 1.79 0 0 1-.025-.769 2.3 2.3 0 0 1 .387-.992c.192-.272.437-.502.72-.677a3.16 3.16 0 0 1 .909-.383 3.95 3.95 0 0 1 .956-.118 7.54 7.54 0 0 1 1.036.068c.299.039.593.107.878.205l-.456 1.23zm1.428 8.17H5.716l1.202-7.593h1.455l-.113.714h.021a2.51 2.51 0 0 1 .87-.635 2.41 2.41 0 0 1 .962-.205 1.96 1.96 0 0 1 .97.226 1.67 1.67 0 0 1 .632.62 2.42 2.42 0 0 1 .299.919c.045.377.036.759-.028 1.134a4.42 4.42 0 0 1-.339 1.141 3.423 3.423 0 0 1-.607.924 2.653 2.653 0 0 1-.844.614 2.44 2.44 0 0 1-1.034.221 2.074 2.074 0 0 1-.869-.163 1.37 1.37 0 0 1-.649-.573h-.021l-.42 2.655zm3.297-4.82a3.17 3.17 0 0 0 .038-.704 1.5 1.5 0 0 0-.136-.561.89.89 0 0 0-.328-.373.99.99 0 0 0-.538-.136 1.4 1.4 0 0 0-.597.131 1.567 1.567 0 0 0-.498.367 2.08 2.08 0 0 0-.361.562c-.1.228-.17.468-.207.714a2.49 2.49 0 0 0-.019.714 1.52 1.52 0 0 0 .177.562.99.99 0 0 0 .375.373 1.12 1.12 0 0 0 .565.136 1.22 1.22 0 0 0 .581-.136c.174-.093.326-.222.447-.378.133-.172.239-.363.315-.567a3.5 3.5 0 0 0 .186-.703zm3.217.441c-.019.213.014.427.094.625a1.01 1.01 0 0 0 .329.405 1.51 1.51 0 0 0 .522.237 2.65 2.65 0 0 0 .663.079 5.18 5.18 0 0 0 .672-.047c.23-.03.457-.081.678-.153l-.005 1.094a6.27 6.27 0 0 1-.796.163c-.3.041-.602.06-.904.059-.495 0-.926-.07-1.291-.21a2.206 2.206 0 0 1-.885-.592 2.09 2.09 0 0 1-.462-.913 3.036 3.036 0 0 1-.024-1.171 3.78 3.78 0 0 1 .378-1.165c.177-.346.413-.658.696-.924s.611-.466.97-.604c.38-.146.784-.219 1.191-.215.357-.01.711.054 1.041.19a1.68 1.68 0 0 1 .693.551c.179.256.295.551.34.861.055.376.049.758-.015 1.132l-.095.599-3.791.002zm1.645-2.331a1.356 1.356 0 0 0-.926.355 1.86 1.86 0 0 0-.556.935h2.397c.068-.385.017-.696-.15-.935s-.423-.357-.765-.355zm3.903 2.331a1.35 1.35 0 0 0 .095.625 1.01 1.01 0 0 0 .328.405 1.51 1.51 0 0 0 .522.237 2.65 2.65 0 0 0 .663.079 5.18 5.18 0 0 0 .672-.047c.23-.03.457-.081.678-.153l-.005 1.094a6.25 6.25 0 0 1-.796.163c-.3.041-.602.06-.904.059-.495 0-.926-.07-1.291-.21a2.206 2.206 0 0 1-.885-.592 2.082 2.082 0 0 1-.463-.913 3.036 3.036 0 0 1-.024-1.171c.062-.406.19-.8.378-1.165.177-.346.413-.658.696-.924s.612-.47.972-.609c.38-.146.784-.219 1.191-.215.357-.009.711.058 1.04.195a1.68 1.68 0 0 1 .693.551c.179.256.295.551.34.861a3.58 3.58 0 0 1-.017 1.134l-.095.599-3.79-.001zm1.647-2.331a1.354 1.354 0 0 0-.925.355 1.852 1.852 0 0 0-.557.935h2.397c.068-.385.017-.696-.15-.935s-.423-.357-.765-.355zm6.287.157a1.98 1.98 0 0 0-.204-.032l-.218-.01c-.18 0-.359.032-.528.094a1.35 1.35 0 0 0-.479.315 1.896 1.896 0 0 0-.385.583c-.119.28-.201.575-.244.877l-.424 2.678h-1.487l.878-5.545h1.457l-.118.725h.021c.354-.567.88-.85 1.579-.851l.209.005.196.016-.253 1.145zm5.066 1.722a3.826 3.826 0 0 1-.398 1.223 3.22 3.22 0 0 1-.715.913 3.03 3.03 0 0 1-.975.573 3.463 3.463 0 0 1-1.188.199 2.99 2.99 0 0 1-1.136-.199 1.955 1.955 0 0 1-.793-.578 2.12 2.12 0 0 1-.42-.913 3.325 3.325 0 0 1-.006-1.218 3.88 3.88 0 0 1 .391-1.213 3.005 3.005 0 0 1 1.683-1.475 3.49 3.49 0 0 1 1.199-.2 2.98 2.98 0 0 1 1.136.2 1.934 1.934 0 0 1 1.216 1.474 3.36 3.36 0 0 1 .007 1.214zm-1.487 0a2.85 2.85 0 0 0 .03-.719 1.4 1.4 0 0 0-.157-.557.93.93 0 0 0-.357-.355 1.116 1.116 0 0 0-.566-.131 1.357 1.357 0 0 0-1.062.473c-.275.316-.457.746-.545 1.291-.087.552-.044.986.129 1.301s.479.477.918.483c.448-.007.807-.168 1.076-.483s.448-.75.534-1.304zM4.022 8.578c.455 0 .801-.073 1.037-.219a.853.853 0 0 0 .413-.648 2.52 2.52 0 0 1-.489.123 3.737 3.737 0 0 1-.56.037 3.24 3.24 0 0 1-.965-.134 1.73 1.73 0 0 1-.715-.414 1.591 1.591 0 0 1-.41-.706c-.084-.286-.1-.621-.05-1.006a3.37 3.37 0 0 1 .281-.973 2.87 2.87 0 0 1 .579-.835 2.73 2.73 0 0 1 .876-.583A2.94 2.94 0 0 1 5.184 3c.303-.003.604.048.889.15.262.094.501.244.701.438.201.203.348.453.428.728.092.331.112.678.059 1.017l-.274 2.098c-.041.381-.156.75-.339 1.087a2.17 2.17 0 0 1-.654.718 2.631 2.631 0 0 1-.926.39 5.29 5.29 0 0 1-1.157.118 5.21 5.21 0 0 1-.682-.048 6.18 6.18 0 0 1-.662-.123l.361-1.135.5.096c.196.03.395.044.593.042zm-.215-3.104c-.053.407.006.708.177.905s.438.295.8.296a2.77 2.77 0 0 0 .485-.037c.123-.022.244-.053.363-.093l.143-1.103c.021-.152.025-.307.012-.46a1.118 1.118 0 0 0-.104-.385.645.645 0 0 0-.252-.273.797.797 0 0 0-.413-.102 1.196 1.196 0 0 0-.393.07 1.043 1.043 0 0 0-.364.219 1.355 1.355 0 0 0-.286.39c-.087.18-.144.374-.166.573zm11.111 4.025a.857.857 0 0 1 .867-.76c.221 0 .391.071.511.214s.166.325.137.546c-.022.214-.122.412-.281.557s-.357.218-.567.214c-.228 0-.403-.071-.527-.214s-.171-.328-.142-.557zm1.887 0a.856.856 0 0 1 .867-.76c.221 0 .391.071.511.214s.166.325.137.546a.88.88 0 0 1-.28.557.816.816 0 0 1-.567.214c-.228 0-.403-.071-.527-.214s-.17-.328-.139-.557h-.002zm4.896-.03a.857.857 0 0 1 .867-.76c.221 0 .391.071.511.214s.166.325.137.546c-.022.214-.122.412-.281.557s-.357.218-.567.214c-.228 0-.403-.071-.527-.214s-.171-.328-.141-.557z" fill="#0d0630"/><path d="M17.792 12.547a10.17 10.17 0 0 1-.495 2.712c-.469 1.484-1.189 2.853-1.816 3.699l-1.695-1.287-1.115-.803c-3.425-2.403-6.039-3.634-9.494-4.935C.776 10.9-.044 7.955.002 5.926c.017-.731.145-1.341.353-1.703 5.167 1.081 9.99 3.179 14.644 6.31a47.16 47.16 0 0 1 1.363.949c.479.344.955.698 1.429 1.064zm-3.436 7.795a8.412 8.412 0 0 1-.606.726c-.722.771-1.546 1.356-2.444 1.885-.526.309-1.404.722-1.404.722l-.908-.43a31.44 31.44 0 0 1-1.002-.503c-1.185-.611-2.167-1.191-2.98-1.774-.891-.639-1.577-1.281-2.098-1.969-1.014-1.341-1.409-2.844-1.491-4.837a21.25 21.25 0 0 1-.017-.889c3.49 1.291 6.512 2.58 10.308 5.16l1.065.742a60.01 60.01 0 0 1 1.575 1.167zm2.998-11.468-.465-.277-1.496-.869c-4.34-2.465-8.018-3.989-13.596-5.075l-.504-.096.031-.041c.311-.406.661-.78 1.045-1.115C4.682-.596 7.298-.03 10.055.509a34.86 34.86 0 0 1 5.054 1.433 33.35 33.35 0 0 1 1.687.659l.153.066a14.41 14.41 0 0 1 .193.776c.387 1.755.354 3.283.211 5.431z" fill="url(#a)" transform="translate(38.219)"/><path d="M48.989 19.267a43.38 43.38 0 0 0-8.67-4.602l-.59-.227-.515-.191-.017-.889c3.49 1.291 6.512 2.58 10.309 5.16l1.065.742a21.37 21.37 0 0 1-.553.732 22.29 22.29 0 0 1-3.234 3.337l-1.002-.503a22.3 22.3 0 0 0 3.207-3.56zm3.935-17.096 1.679.653c.032.211.06.43.083.63l.059.603a22.97 22.97 0 0 1-.068 4.626l-1.496-.869c.046-.587.069-1.18.069-1.779a22.92 22.92 0 0 0-.153-2.626l-.117-.047a34.86 34.86 0 0 0-5.054-1.433c-2.757-.539-5.373-1.104-7.685.891l-.04.035-.933-.184c.292-.372.617-.715.973-1.024C42.55-.35 45.17.215 47.927.754c1.698.346 3.368.82 4.997 1.415zm-.137 8.446a48 48 0 0 1 1.361.948 22.447 22.447 0 0 1-2.578 6.188l-1.115-.803a22.45 22.45 0 0 0 1.734-4.038 39.1 39.1 0 0 0-13.267-6.606l-.116-.032-.554-.149-.463-.116c.017-.731.145-1.342.353-1.703 5.167 1.081 9.99 3.179 14.644 6.31zm.193-8.426c.762.276 1.333.51 1.625.633l-1.682-.654.057.021z" fill-opacity=".25" fill="#fff" fill-rule="nonzero" style="mix-blend-mode:overlay" transform="translate(.5)"/></g></svg>