<svg xmlns="http://www.w3.org/2000/svg" width="30" height="30" fill="none"><path d="M8.83 0C.642 0 0 .641 0 8.83v12.34C0 29.358.642 30 8.83 30h12.34c8.189 0 8.83-.641 8.83-8.83V8.83C30 .641 29.359 0 21.17 0H8.83zM6.876 3h16.248C26.719 3 27 3.281 27 6.876v16.248C27 26.719 26.718 27 23.124 27H6.876C3.281 27 3 26.718 3 23.124V6.876C3 3.281 3.281 3 6.876 3zm8.679 2.77v12.451c0 1.712-1.488 2.596-2.556 2.596-.805 0-2.635-.631-2.635-2.616 0-2.084 1.708-2.616 2.654-2.616.551 0 .768.119.768.119v-3.322s-.413-.062-.885-.062c-3.389 0-5.802 2.743-5.802 5.881 0 2.651 2.073 5.861 5.861 5.861 4.034 0 5.881-3.364 5.881-5.842v-6.176s1.798 1.258 4.208 1.258v-3.146c-2.765-.197-4.243-2.055-4.346-4.386h-3.148z" fill="url(#a)"/><defs><linearGradient id="a" x1="1.071" y1="29.286" x2="29.286" y2="1.071" gradientUnits="userSpaceOnUse"><stop stop-color="#f8a335"/><stop offset="1" stop-color="#e11619"/></linearGradient></defs></svg>