<svg width="36" height="36" fill="none" xmlns="http://www.w3.org/2000/svg"><g clip-path="url(#a)"><path d="M6.5 0C2.928 0 0 2.928 0 6.5v23C0 33.072 2.928 36 6.5 36h23c3.572 0 6.5-2.928 6.5-6.5v-23C36 2.928 33.072 0 29.5 0h-23Zm0 3h23C31.45 3 33 4.55 33 6.5v23c0 1.95-1.55 3.5-3.5 3.5h-23C4.55 33 3 31.45 3 29.5v-23C3 4.55 4.55 3 6.5 3Zm1.328 5 7.737 11.057L7.822 28h2.043l6.604-7.648L21.82 28h6.438l-8.233-11.766L27.137 8h-2l-6.014 6.943L14.266 8H7.828Zm3.107 1.695h2.563l11.652 16.61h-2.562L10.935 9.695Z" fill="url(#b)"/></g><defs><linearGradient id="b" x1="35" y1="1.5" x2="2" y2="34.5" gradientUnits="userSpaceOnUse"><stop stop-color="#E2201A"/><stop offset="1" stop-color="#F69833"/></linearGradient><clipPath id="a"><path fill="#fff" d="M0 0h36v36H0z"/></clipPath></defs></svg>