<svg width="314" height="200" viewBox="0 0 314 200" fill="none" xmlns="http://www.w3.org/2000/svg">
<mask id="mask0_1_18" style="mask-type:luminance" maskUnits="userSpaceOnUse" x="0" y="0" width="314" height="200">
<path fill-rule="evenodd" clip-rule="evenodd" d="M0.747986 0H313.248V200H0.747986V0Z" fill="white"/>
</mask>
<g mask="url(#mask0_1_18)">
<path fill-rule="evenodd" clip-rule="evenodd" d="M93.94 60.006C96.823 56.51 98.769 51.652 98.24 46.81C94.074 46.981 89.036 49.594 86.069 53.077C83.382 56.168 81.057 61.118 81.699 65.864C86.332 66.222 91.057 63.501 93.94 60.006ZM105.91 90.73C105.818 80.259 114.452 75.222 114.852 74.972C109.981 67.889 102.427 66.906 99.736 66.797C93.298 66.16 87.161 70.589 83.907 70.589C80.641 70.589 75.616 66.897 70.266 67.01C63.249 67.109 56.779 71.089 53.167 77.368C45.896 90.046 51.321 108.771 58.42 119.025C61.896 124.045 66.028 129.686 71.474 129.482C76.716 129.278 78.682 126.091 85.016 126.091C91.336 126.083 93.124 129.474 98.644 129.378C104.277 129.257 107.852 124.253 111.306 119.208C115.277 113.395 116.923 107.75 117.006 107.467C116.893 107.391 106.035 103.25 105.91 90.73ZM172.974 60.001C170.874 57.977 168.166 56.402 164.925 55.318C161.712 54.248 157.854 53.706 153.458 53.706C150.643 53.693 147.829 53.839 145.03 54.144C142.696 54.404 140.37 54.731 138.055 55.123L137.376 55.24V128.849H144.096V97.838C146.359 98.225 148.95 98.429 151.808 98.429C155.612 98.429 159.175 97.942 162.4 96.987C165.502 96.106 168.392 94.598 170.891 92.559C173.298 90.547 175.234 88.031 176.562 85.188C177.937 82.272 178.636 78.842 178.636 74.984C178.636 71.793 178.132 68.922 177.149 66.452C176.199 64.046 174.779 61.853 172.974 60.001ZM166.799 88.117C163.35 91.009 158.467 92.475 152.271 92.475C150.567 92.475 148.955 92.4 147.475 92.263C146.338 92.16 145.209 91.97 144.1 91.696V60.394C144.988 60.231 146.088 60.077 147.379 59.939C149.017 59.764 150.987 59.676 153.246 59.676C155.839 59.651 158.423 59.986 160.925 60.673C163.056 61.259 165.059 62.24 166.829 63.564C168.441 64.814 169.708 66.439 170.587 68.397C171.474 70.38 171.92 72.747 171.92 75.426C171.916 80.988 170.191 85.259 166.799 88.117ZM218.806 121.958C218.731 119.874 218.702 117.783 218.702 115.699V95.237C218.702 92.812 218.455 90.338 217.976 87.879C217.515 85.434 216.568 83.105 215.193 81.03C213.827 78.98 211.914 77.289 209.522 75.997C207.131 74.709 204.023 74.06 200.278 74.06C197.544 74.06 194.874 74.414 192.353 75.118C189.705 75.879 187.202 77.07 184.94 78.643L184.394 79.022L186.665 84.334L187.486 83.78C189.278 82.577 191.238 81.644 193.303 81.013C195.389 80.361 197.562 80.026 199.748 80.022C202.548 80.022 204.786 80.53 206.381 81.53C208.002 82.542 209.222 83.797 210.01 85.263C210.831 86.775 211.368 88.384 211.606 90.054C211.86 91.792 211.981 93.346 211.981 94.679V95.271C202.019 95.225 194.24 96.883 189.074 100.213C183.653 103.704 180.903 108.675 180.903 114.983C180.903 116.799 181.228 118.629 181.87 120.437C182.519 122.266 183.507 123.903 184.798 125.303C186.099 126.719 187.778 127.874 189.786 128.737C191.786 129.607 194.14 130.045 196.769 130.045C200.491 130.107 204.155 129.105 207.327 127.157C208.711 126.303 209.939 125.333 210.99 124.286C211.437 123.837 211.864 123.367 212.269 122.878H212.527L213.144 128.853H219.622L219.443 127.894C219.087 125.934 218.874 123.949 218.806 121.958ZM211.981 111.475C211.981 112.191 211.81 113.174 211.485 114.353C211.05 115.629 210.441 116.839 209.677 117.949C207.975 120.441 205.502 122.307 202.64 123.261C200.902 123.833 199.081 124.11 197.252 124.083C196.046 124.083 194.849 123.879 193.711 123.478C192.606 123.094 191.592 122.487 190.732 121.695C189.83 120.842 189.118 119.81 188.64 118.666C188.111 117.445 187.844 115.933 187.844 114.174C187.844 111.295 188.619 108.958 190.14 107.25C191.778 105.429 193.834 104.035 196.132 103.187C198.734 102.209 201.458 101.588 204.227 101.342C206.804 101.093 209.392 100.981 211.981 101.004V111.475ZM264.416 75.255L251.875 109.35C251.092 111.408 250.362 113.483 249.696 115.504C249.371 116.512 249.062 117.466 248.758 118.374H248.521C248.208 117.379 247.888 116.386 247.562 115.395C246.913 113.395 246.213 111.433 245.496 109.562L232.084 75.255H224.914L244.1 124.578C244.604 125.766 244.679 126.312 244.679 126.532C244.679 126.599 244.655 127.003 244.092 128.503C243.044 131.179 241.677 133.72 240.022 136.069C238.484 138.161 237.076 139.861 235.821 141.115C234.363 142.573 232.859 143.769 231.33 144.673C229.768 145.594 228.343 146.34 227.08 146.903L226.356 147.227L228.693 152.906L229.435 152.631C230.042 152.402 231.185 151.881 232.917 151.036C234.667 150.173 236.605 148.807 238.671 146.956C240.503 145.344 242.129 143.512 243.513 141.502C244.929 139.469 246.346 137.082 247.738 134.432C249.112 131.786 250.487 128.778 251.829 125.482C253.171 122.17 254.612 118.466 256.1 114.487L271.595 75.255H264.416ZM285.228 4.167L288.403 4.17C289.274 4.175 290.144 4.187 291.019 4.208C292.606 4.25 294.473 4.337 296.269 4.662C297.932 4.962 299.34 5.425 300.702 6.116C303.456 7.513 305.694 9.753 307.089 12.507C307.781 13.866 308.24 15.275 308.539 16.941C308.86 18.72 308.952 20.591 308.99 22.187C309.014 23.054 309.027 23.924 309.031 24.803C309.039 25.857 309.039 26.92 309.039 27.978V172.022C309.039 173.08 309.039 174.138 309.031 175.209C309.028 176.077 309.013 176.946 308.99 177.813C308.948 179.409 308.86 181.28 308.539 183.071C308.28 184.609 307.791 186.099 307.089 187.493C305.686 190.245 303.446 192.484 300.694 193.888C299.3 194.591 297.809 195.081 296.269 195.342C294.536 195.62 292.786 195.77 291.032 195.792C290.157 195.813 289.282 195.825 288.394 195.825C287.34 195.833 286.278 195.833 285.224 195.833H28.734C27.688 195.833 26.643 195.833 25.585 195.825C24.71 195.825 23.835 195.813 22.981 195.792C21.222 195.769 19.467 195.618 17.731 195.342C16.186 195.084 14.69 194.592 13.293 193.884C11.924 193.19 10.675 192.281 9.59397 191.192C8.50797 190.109 7.60298 188.86 6.90998 187.493C6.20498 186.096 5.71597 184.601 5.45597 183.059C5.17297 181.324 5.02098 179.571 5.00198 177.813C4.98098 176.944 4.96897 176.074 4.96397 175.205L4.96098 172.664V27.341L4.96397 24.803C4.96897 23.932 4.98098 23.062 5.00198 22.187C5.04398 20.599 5.13097 18.733 5.45597 16.932C5.71397 15.391 6.20398 13.898 6.90998 12.504C8.30798 9.751 10.545 7.514 13.298 6.116C14.692 5.413 16.185 4.924 17.726 4.667C19.464 4.383 21.22 4.231 22.981 4.212C23.851 4.191 24.722 4.179 25.589 4.175L28.772 4.167H285.228ZM285.228 0H28.772L25.568 0.0039978C24.668 0.0079978 23.768 0.0209976 22.868 0.0459976C20.9 0.0719976 18.936 0.245004 16.993 0.563004C15.05 0.897004 13.167 1.517 11.406 2.404C7.87498 4.21 5.00198 7.084 3.19798 10.616C2.30898 12.376 1.68698 14.26 1.35598 16.203C1.03498 18.146 0.860976 20.109 0.835976 22.078C0.814976 22.974 0.801974 23.874 0.797974 24.774L0.793976 27.978V172.022L0.797974 175.23C0.801974 176.13 0.814973 177.03 0.839973 177.926C0.893973 179.884 1.00998 181.859 1.36098 183.797C1.71098 185.767 2.28898 187.596 3.19798 189.384C4.99398 192.923 7.87098 195.8 11.41 197.596C13.197 198.508 15.027 199.083 16.993 199.438C18.931 199.783 20.906 199.9 22.868 199.954C23.768 199.979 24.664 199.992 25.568 199.992C26.635 200 27.705 200 28.772 200H285.228C286.295 200 287.365 200 288.432 199.992C289.332 199.987 290.232 199.975 291.132 199.954C293.09 199.9 295.065 199.783 297.007 199.438C298.949 199.103 300.83 198.483 302.589 197.596C306.129 195.801 309.007 192.924 310.802 189.384C311.714 187.596 312.289 185.767 312.639 183.797C312.989 181.859 313.102 179.884 313.156 177.926C313.181 177.026 313.193 176.126 313.197 175.23C313.206 174.159 313.206 173.093 313.206 172.022V27.978C313.206 26.907 313.206 25.841 313.197 24.77C313.194 23.871 313.18 22.972 313.156 22.074C313.132 20.106 312.959 18.142 312.639 16.199C312.31 14.256 311.69 12.372 310.802 10.612C309.001 7.076 306.126 4.2 302.589 2.4C300.83 1.513 298.949 0.891999 297.007 0.557999C295.064 0.240999 293.1 0.0679998 291.132 0.0419998C290.228 0.0159998 289.327 0.008 288.432 0H285.228Z" fill="black"/>
</g>
</svg>
