<svg width="165" height="51" viewBox="0 0 165 51" fill="none" xmlns="http://www.w3.org/2000/svg">
<path d="M71.0537 0.0864963V17.4367C71.8627 17.4367 72.6515 17.3427 73.4075 17.1678C75.3127 16.7236 77.0121 15.7524 78.3514 14.4154C80.2182 12.5487 81.3722 9.9688 81.3722 7.12051V0.0864963H71.0537ZM74.9475 20.6174C72.5754 22.5071 71.0537 25.4217 71.0537 28.6912V50.7311H81.3722V18.375C78.9447 18.375 76.7103 19.2146 74.9475 20.6174ZM116.192 23.5775C115.887 23.4506 115.573 23.3237 115.25 23.2048C113.011 22.3877 110.654 21.8401 108.374 21.3122C107.037 21.0028 105.657 20.6832 104.331 20.3127C102.243 19.7322 100.214 19.1361 98.3191 18.2556C96.3988 17.3629 95.5413 15.7345 95.7726 13.4183C95.9245 11.9827 96.7415 10.877 97.779 10.0929C98.479 9.56311 99.2805 9.18234 100.044 8.94682C101.338 8.54818 102.761 8.33805 104.153 8.33805C105.343 8.33805 107.2 8.49741 108.95 9.30174C109.873 9.72765 110.766 10.3341 111.514 11.1892C112.257 12.0363 112.869 13.1217 113.323 14.3952C113.338 14.4432 113.368 14.5654 113.411 14.72C113.891 16.5181 114.036 17.0611 114.842 17.0611L115.02 17.0559L115.101 17.0306C115.22 17.008 115.342 16.9873 115.461 16.9647C116.757 16.7316 118.041 16.4928 119.406 16.2417L122.34 15.7039L123.256 15.4806L123.078 14.6006C123.05 14.4558 123.023 14.3162 122.984 14.1747C122.944 13.9411 122.774 12.9976 122.394 11.7519C121.795 9.8038 120.691 7.12803 118.787 5.30924C118.781 5.30406 118.779 5.30171 118.774 5.29654C117.836 4.40384 116.724 3.59434 115.461 2.88449C115.2 2.73736 114.931 2.59492 114.657 2.45577L114.558 2.39748L114.5 2.37679C112.833 1.54755 111.012 0.926084 109.074 0.535437C108.359 0.398639 107.697 0.297098 107.053 0.223294C106.241 0.132096 105.388 0.0864963 104.518 0.0864963C102.357 0.0864963 100.16 0.357742 98.0629 0.893178C93.0127 2.18688 88.5459 5.01778 86.5851 9.30174C86.0854 10.3872 85.7502 11.5667 85.6059 12.8401C85.3826 14.8009 85.6618 16.7264 86.3896 18.5198C87.5309 21.3554 89.7911 23.8718 92.9643 25.7057C93.786 26.18 94.6637 26.6035 95.6203 26.9843C96.6146 27.3138 97.7202 27.6462 99.0952 28.0289C99.7346 28.2094 100.371 28.3842 101.01 28.5619C101.926 28.813 102.839 29.064 103.747 29.3305C104.645 29.5914 105.561 29.8049 106.446 30.0127C107.847 30.3398 109.17 30.6468 110.426 31.1338C110.794 31.2758 111.136 31.4305 111.454 31.5983C113.579 32.7091 114.535 34.3479 114.297 36.4858C114.069 38.551 112.709 39.9993 110.87 40.8944C109.308 41.6531 107.392 42.0155 105.53 42.0155C104.757 42.0155 104.011 41.9521 103.313 41.828C101.609 41.521 100.181 41.0796 98.981 40.5493C93.8673 38.2919 92.9135 34.4696 92.5534 33.0259C92.4444 32.5977 92.3861 32.3589 92.2211 32.1408L91.8586 31.6613L90.7248 31.91C88.8731 32.3161 87.1149 32.6988 85.3977 33.0819L83.5817 33.4749L83.7288 34.3605C84.0128 36.0698 84.4288 37.6733 84.9694 39.1367C85.0808 39.4258 85.1974 39.7097 85.3243 39.989C87.1887 44.1009 90.7779 47.1701 95.7623 48.8921C95.8229 48.9175 95.8789 48.9381 95.9245 48.9508C96.0081 48.9809 96.0918 49.0063 96.1097 49.0063C96.835 49.2146 97.558 49.397 98.281 49.5516C99.3843 49.7951 100.483 49.978 101.563 50.0969C102.469 50.1985 103.422 50.2492 104.396 50.2492C113.414 50.2492 123.535 46.1096 124.443 37.0185C124.473 36.7322 124.491 36.4431 124.501 36.1563C124.511 36.0675 124.514 35.9861 124.514 35.8949V35.8037C124.598 30.0531 121.797 25.9388 116.192 23.5775ZM65.8131 4.36294C65.8131 4.3352 65.8131 4.30747 65.8032 4.28678C65.7473 3.9878 65.6608 3.686 65.5597 3.40677C65.539 3.38655 65.539 3.35882 65.5216 3.33061C65.4173 3.04903 65.2781 2.7853 65.1183 2.53427C65.0981 2.4962 65.0802 2.46846 65.0624 2.44026C64.8922 2.18688 64.7046 1.94337 64.5095 1.7276C64.479 1.69986 64.4611 1.67165 64.4334 1.65144C64.2077 1.41827 63.9539 1.2025 63.6826 1.01493C63.6723 1.00459 63.6723 1.00459 63.6648 0.99472H63.6544C63.1016 0.611594 62.4726 0.33753 61.7877 0.197912C61.7877 0.18804 61.7802 0.188038 61.7802 0.188038C61.4784 0.132097 61.161 0.0940209 60.8414 0.0940209C60.8212 0.0940209 60.7934 0.0864963 60.7652 0.0864963H60.7375C60.438 0.0864963 60.1466 0.114232 59.8575 0.170174C59.8293 0.170174 59.7992 0.170175 59.7813 0.180517C59.472 0.235988 59.1904 0.319664 58.9088 0.424025C58.8806 0.441418 58.8529 0.441419 58.8251 0.462103C58.7236 0.49736 58.6244 0.540607 58.528 0.588557C58.3555 0.667532 58.1882 0.763904 58.0283 0.864974C58.0006 0.882837 57.9625 0.900699 57.9244 0.920913C57.6809 1.08827 57.445 1.26831 57.2217 1.47374C57.1939 1.50195 57.1634 1.51981 57.1356 1.54755C56.9123 1.77319 56.6966 2.02704 56.509 2.29077C56.509 2.29829 56.4991 2.30863 56.4888 2.3185L56.461 2.35423V2.3641L53.3716 6.84879L43.0554 21.817V21.8194L38.1063 28.9982V5.24342C38.1063 4.94397 38.0682 4.65251 38.0226 4.36294C38.0226 4.3352 38.0127 4.30747 38.0127 4.28678C37.9568 3.9878 37.8731 3.686 37.7589 3.40677C37.7513 3.38655 37.741 3.35882 37.7311 3.33061C37.6192 3.04903 37.4876 2.7853 37.3278 2.53427C37.3099 2.4962 37.2897 2.46846 37.2718 2.44026C37.1045 2.18688 36.9169 1.94337 36.7087 1.7276C36.6908 1.69986 36.6631 1.67165 36.6428 1.65144C36.4092 1.41827 36.1662 1.2025 35.8945 1.01493C35.8846 1.00459 35.8846 1.00459 35.8742 0.99472H35.8639C35.3111 0.611594 34.6844 0.33753 33.9995 0.197912C33.9995 0.18804 33.9896 0.188038 33.9896 0.188038C33.6803 0.132097 33.3705 0.0940209 33.0509 0.0940209C33.0231 0.0940209 33.0053 0.0864963 32.9775 0.0864963H32.9498C32.6475 0.0864963 32.3584 0.114232 32.067 0.170174C32.0388 0.170174 32.011 0.170175 31.9833 0.180517C31.6815 0.235988 31.3919 0.319664 31.1108 0.424025C31.0826 0.441418 31.0548 0.441419 31.0271 0.462103C30.753 0.563173 30.4917 0.705612 30.2378 0.864974C30.1997 0.882837 30.172 0.900699 30.1339 0.920913C29.8806 1.08827 29.6469 1.26831 29.4311 1.47374C29.4034 1.50195 29.3757 1.51981 29.3475 1.54755C29.1119 1.77319 28.9065 2.02704 28.7185 2.29077C28.7086 2.29829 28.7086 2.30863 28.7011 2.3185L28.6729 2.35423V2.3641L25.5811 6.85161L15.2649 21.8222L10.3186 29.0005V28.9954L0.90963 42.6488C0.316842 43.5086 0 44.5277 0 45.5718C0 45.8736 0.0277334 46.1632 0.0756829 46.4546C0.086025 46.4824 0.0860265 46.5106 0.0860265 46.5308C0.141968 46.8302 0.235515 47.1292 0.337055 47.4108C0.347397 47.4287 0.35727 47.4592 0.367612 47.487C0.479024 47.7686 0.618643 48.0299 0.770953 48.2833C0.788817 48.3214 0.806208 48.3496 0.834413 48.3773C0.994245 48.6312 1.18181 48.8747 1.38959 49.09C1.4178 49.1182 1.43566 49.1459 1.4634 49.1661C1.68904 49.3998 1.94289 49.6151 2.20427 49.8026C2.21414 49.813 2.22448 49.813 2.22448 49.8205C2.232 49.8205 2.232 49.8205 2.24187 49.8309C2.43978 49.9625 2.64521 50.0744 2.85064 50.1886C2.89906 50.206 2.94466 50.2239 2.99308 50.2521C3.19851 50.3456 3.41382 50.4321 3.62959 50.5054C3.65732 50.5054 3.67754 50.5158 3.6954 50.5158C3.89331 50.5713 4.08887 50.6197 4.29665 50.6554C4.36247 50.6653 4.41841 50.6756 4.48422 50.6831C4.68965 50.7137 4.89555 50.7212 5.10333 50.7311H5.22508C5.39244 50.7212 5.56261 50.7137 5.72244 50.693C5.77791 50.693 5.83386 50.6831 5.8898 50.6756C6.03177 50.6554 6.16339 50.6272 6.30301 50.5995C6.35895 50.5919 6.41489 50.5713 6.47318 50.5539C6.60246 50.5257 6.73409 50.4777 6.85584 50.4396C6.91178 50.4218 6.97007 50.394 7.03353 50.3762C7.15811 50.3277 7.27987 50.2723 7.40162 50.2163C7.44722 50.1886 7.50269 50.1604 7.55863 50.1303C7.71846 50.0565 7.87077 49.9625 8.01039 49.8689C8.05599 49.8407 8.09407 49.8027 8.14202 49.7749C8.2539 49.6912 8.37565 49.6052 8.48941 49.5112C8.54536 49.4656 8.59096 49.4096 8.6469 49.3617C8.74092 49.278 8.82695 49.184 8.91062 49.1003C8.95622 49.042 9.00464 48.9964 9.05024 48.9405C9.16447 48.8187 9.25802 48.697 9.35204 48.5649C9.3699 48.5447 9.39012 48.5268 9.39764 48.4991L9.43571 48.461V48.4535L15.2649 39.9941L25.5811 25.0231L27.7853 21.8246L27.79 21.817V45.5718C27.79 45.8736 27.8183 46.1632 27.8662 46.4546C27.8737 46.4824 27.8737 46.5106 27.8841 46.5308C27.94 46.8302 28.0237 47.1292 28.1276 47.4108C28.1379 47.4287 28.1454 47.4592 28.1553 47.487C28.2695 47.7686 28.4092 48.0299 28.569 48.2833C28.5859 48.32 28.6057 48.3472 28.6231 48.3745C28.7866 48.6293 28.9639 48.8761 29.1778 49.0905C29.206 49.1182 29.2262 49.1459 29.2539 49.1661C29.4796 49.3998 29.7306 49.6151 30.0047 49.8026C30.0047 49.813 30.0122 49.813 30.0225 49.8205C30.0225 49.8205 30.0324 49.8205 30.0324 49.8309C30.228 49.9625 30.4357 50.0744 30.6515 50.1886C30.6868 50.206 30.7352 50.2239 30.7808 50.2521C30.989 50.3456 31.2043 50.4321 31.43 50.5054C31.4478 50.5054 31.4657 50.5158 31.4859 50.5158C31.6815 50.5713 31.8794 50.6197 32.0848 50.6554L32.2823 50.6831C32.4802 50.7137 32.6856 50.7212 32.891 50.7311H33.0128C33.183 50.7212 33.3527 50.7137 33.5205 50.693C33.576 50.693 33.6244 50.6831 33.6803 50.6756C33.8195 50.6554 33.9619 50.6272 34.0935 50.5995C34.1495 50.5919 34.2054 50.5713 34.2609 50.5539C34.393 50.5257 34.5246 50.4777 34.6464 50.4396C34.7023 50.4218 34.7681 50.394 34.8241 50.3762C34.9458 50.3277 35.0676 50.2723 35.1893 50.2163C35.2453 50.1886 35.3036 50.1604 35.3491 50.1303C35.509 50.0565 35.6585 49.9625 35.8009 49.8689C35.8465 49.8407 35.8846 49.8027 35.9302 49.7749C36.0519 49.6912 36.1662 49.6052 36.2776 49.5112C36.3335 49.4656 36.3918 49.4096 36.4374 49.3617C36.531 49.278 36.6151 49.184 36.7011 49.1003C36.7571 49.042 36.8027 48.9964 36.8506 48.9405C36.9522 48.8187 37.0462 48.697 37.1397 48.5649C37.1604 48.5447 37.1778 48.5268 37.1985 48.4991L37.2262 48.461V48.4535L38.0837 47.2082L43.0554 39.9941L53.3716 25.0231L55.5806 21.817V50.2619C55.5806 50.4218 55.5886 50.5816 55.6088 50.7311H65.869C65.8869 50.5816 65.8968 50.4218 65.8968 50.2619V5.24342C65.8968 4.94397 65.869 4.65251 65.8131 4.36294ZM148.365 4.11191C147.792 3.78989 147.104 3.67801 146.432 3.76451C146.237 3.78472 146.044 3.82515 145.856 3.88109C144.652 4.23649 143.959 5.22556 143.858 6.67627C143.85 6.78815 143.848 6.89721 143.848 7.00345C143.866 8.56887 144.801 9.72765 146.222 10.0121C146.414 10.0501 146.617 10.0727 146.828 10.0779C147.163 10.0121 147.505 9.97633 147.827 9.87479C149.027 9.49448 149.732 8.50023 149.783 7.05187C149.834 5.55509 149.223 4.59658 148.365 4.11191ZM148.365 4.11191C147.792 3.78989 147.104 3.67801 146.432 3.76451C146.237 3.78472 146.044 3.82515 145.856 3.88109C144.652 4.23649 143.959 5.22556 143.858 6.67627C143.85 6.78815 143.848 6.89721 143.848 7.00345C143.866 8.56887 144.801 9.72765 146.222 10.0121C146.414 10.0501 146.617 10.0727 146.828 10.0779C147.163 10.0121 147.505 9.97633 147.827 9.87479C149.027 9.49448 149.732 8.50023 149.783 7.05187C149.834 5.55509 149.223 4.59658 148.365 4.11191ZM135.454 3.6987C135.322 3.72878 135.193 3.76968 135.071 3.81763C134.026 4.2111 133.392 5.15975 133.28 6.50139C133.144 8.1754 134.087 9.47191 135.439 9.82683C135.977 9.96645 136.581 9.95893 137.207 9.76572C138.46 9.3779 139.201 8.27459 139.211 6.78016C139.229 4.58388 137.549 3.20886 135.454 3.6987ZM135.439 9.82683C135.977 9.96645 136.581 9.95893 137.207 9.76572C138.46 9.3779 139.201 8.27459 139.211 6.78016C139.229 4.58388 137.549 3.20886 135.454 3.6987C135.322 3.72878 135.193 3.76968 135.071 3.81763C134.026 4.2111 133.392 5.15975 133.28 6.50139C133.144 8.1754 134.087 9.47191 135.439 9.82683ZM148.365 4.11191C147.792 3.78989 147.104 3.67801 146.432 3.76451C146.237 3.78472 146.044 3.82515 145.856 3.88109C144.652 4.23649 143.959 5.22556 143.858 6.67627C143.85 6.78815 143.848 6.89721 143.848 7.00345C143.866 8.56887 144.801 9.72765 146.222 10.0121C146.414 10.0501 146.617 10.0727 146.828 10.0779C147.163 10.0121 147.505 9.97633 147.827 9.87479C149.027 9.49448 149.732 8.50023 149.783 7.05187C149.834 5.55509 149.223 4.59658 148.365 4.11191ZM161.581 2.20709C160.361 5.57531 159.141 8.94682 157.911 12.3127C157.448 13.5707 156.541 14.6791 155.346 15.3006C154.56 15.7115 153.766 15.8412 152.961 15.7749C152.439 15.7317 151.914 15.6076 151.384 15.4252C151.607 14.8009 151.825 14.1949 152.048 13.5707C152.627 13.7484 153.164 13.9284 153.761 13.8015C154.902 13.5608 155.561 12.8096 155.957 11.7852C156.013 11.6405 155.942 11.4247 155.881 11.2602C154.806 8.28446 153.722 5.30924 152.639 2.33402C152.589 2.19158 152.538 2.04444 152.474 1.86439H154.539C155.369 4.18571 156.203 6.52913 157.04 8.87302C157.073 8.87302 157.104 8.87067 157.137 8.87067C157.966 6.54182 158.798 4.21345 159.638 1.85969H161.675C161.642 1.9838 161.621 2.09803 161.581 2.20709ZM149.816 11.7852V10.8874C149.735 10.8972 149.677 10.8874 149.654 10.9123C148.756 11.9065 147.089 12.2619 145.537 11.8943C144.604 11.671 143.713 11.1863 143.051 10.4229C142.828 10.1644 142.63 9.87244 142.465 9.5476C142.103 8.82742 141.907 8.00804 141.877 7.18115C141.826 5.98664 142.113 4.77662 142.714 3.8228C142.818 3.65545 142.932 3.49797 143.054 3.34848C144.061 2.13093 146.024 1.46622 147.759 1.85969C148.195 1.95606 148.616 2.12059 149.002 2.3594C149.205 2.48116 149.398 2.62547 149.578 2.79048C149.621 2.82855 149.672 2.85864 149.801 2.95501V1.86204H151.754V11.7852H149.816ZM131.312 1.86439H133.248C133.26 2.04444 133.273 2.21461 133.288 2.44543C133.463 2.35423 133.608 2.28042 133.752 2.20192C134.092 2.02187 134.452 1.88226 134.825 1.78589C135.837 1.51699 136.93 1.5499 137.905 1.86204C138.381 2.01435 138.83 2.23247 139.229 2.51406C139.416 2.64851 139.591 2.79565 139.754 2.95501C140.606 3.79977 141.032 4.84995 141.159 6.02707C141.304 7.32594 141.116 8.56886 140.431 9.70226C140.104 10.2452 139.693 10.6768 139.229 11.0115C138.688 11.3993 138.072 11.6508 137.425 11.7852C136.816 11.9122 136.18 11.9347 135.551 11.8661C135.541 11.8661 135.533 11.8638 135.523 11.8609C134.734 11.7726 134.013 11.4881 133.28 11.0571V14.7628H131.312V1.86439ZM127.987 0V17.3935L154.684 17.3526C160.381 17.3526 165 12.7339 165 7.03401V0H127.987ZM135.454 3.6987C135.322 3.72878 135.193 3.76968 135.071 3.81763C134.026 4.2111 133.392 5.15975 133.28 6.50139C133.144 8.1754 134.087 9.47191 135.439 9.82683C135.977 9.96645 136.581 9.95893 137.207 9.76572C138.46 9.3779 139.201 8.27459 139.211 6.78016C139.229 4.58388 137.549 3.20886 135.454 3.6987ZM148.365 4.11191C147.792 3.78989 147.104 3.67801 146.432 3.76451C146.237 3.78472 146.044 3.82515 145.856 3.88109C144.652 4.23649 143.959 5.22556 143.858 6.67627C143.85 6.78815 143.848 6.89721 143.848 7.00345C143.866 8.56887 144.801 9.72765 146.222 10.0121C146.414 10.0501 146.617 10.0727 146.828 10.0779C147.163 10.0121 147.505 9.97633 147.827 9.87479C149.027 9.49448 149.732 8.50023 149.783 7.05187C149.834 5.55509 149.223 4.59658 148.365 4.11191ZM148.365 4.11191C147.792 3.78989 147.104 3.67801 146.432 3.76451C146.237 3.78472 146.044 3.82515 145.856 3.88109C144.652 4.23649 143.959 5.22556 143.858 6.67627C143.85 6.78815 143.848 6.89721 143.848 7.00345C143.866 8.56887 144.801 9.72765 146.222 10.0121C146.414 10.0501 146.617 10.0727 146.828 10.0779C147.163 10.0121 147.505 9.97633 147.827 9.87479C149.027 9.49448 149.732 8.50023 149.783 7.05187C149.834 5.55509 149.223 4.59658 148.365 4.11191ZM135.454 3.6987C135.322 3.72878 135.193 3.76968 135.071 3.81763C134.026 4.2111 133.392 5.15975 133.28 6.50139C133.144 8.1754 134.087 9.47191 135.439 9.82683C135.977 9.96645 136.581 9.95893 137.207 9.76572C138.46 9.3779 139.201 8.27459 139.211 6.78016C139.229 4.58388 137.549 3.20886 135.454 3.6987ZM135.454 3.6987C135.322 3.72878 135.193 3.76968 135.071 3.81763C134.026 4.2111 133.392 5.15975 133.28 6.50139C133.144 8.1754 134.087 9.47191 135.439 9.82683C135.977 9.96645 136.581 9.95893 137.207 9.76572C138.46 9.3779 139.201 8.27459 139.211 6.78016C139.229 4.58388 137.549 3.20886 135.454 3.6987Z" fill="#6322D0"/>
</svg>
