<svg width="164" height="68" viewBox="0 0 164 68" fill="none" xmlns="http://www.w3.org/2000/svg">
<path d="M142.2 67.5H21.8C10.2 67.5 0.9 58.1 0.9 46.6V21.5C0.9 9.9 10.3 0.599998 21.8 0.599998H142.2C153.8 0.599998 163.1 10 163.1 21.5V46.6C163.1 58.1 153.8 67.5 142.2 67.5Z" fill="#5AFEAE"/>
<path d="M133.9 22.1L125.6 53.8V53.9H132.1L140.4 22.2H133.9V22.1ZM31.3 40.1C30.3 40.6 29.3 40.8 28.2 40.8C25.9 40.8 24.6 40.4 24.4 38.5V38.4C24.4 38.3 24.4 38.3 24.4 38.2V32.7V32.1V28.2V26.6V26V22.3L18.6 23C22.5 22.2 24.7 19.2 24.7 16.1V14.2H18.2V23.1L17.8 23.2V39.6C18 44.2 21.1 47 26 47C27.8 47 29.7 46.6 31.2 45.9L31.3 40.1Z" fill="#292929"/>
<path d="M32.3 20.9L14.1 23.7V28.3L32.3 25.5V20.9ZM32.3 27.7L14.1 30.5V34.9L32.3 32.1V27.7ZM52.7 29.8C52.4 24.7 49.2 21.6 44 21.6C41 21.6 38.5 22.8 36.8 25C35.1 27.2 34.2 30.4 34.2 34.3C34.2 38.2 35.1 41.4 36.8 43.6C38.5 45.8 41 46.9 44 46.9C49.2 46.9 52.4 43.9 52.7 38.7V46.4H59.2V22.2L52.7 23.2V29.8ZM53.1 34.3C53.1 38.8 50.7 41.8 47 41.8C43.2 41.8 40.9 39 40.9 34.3C40.9 29.6 43.2 26.8 47 26.8C48.8 26.8 50.4 27.5 51.5 28.9C52.5 30.2 53.1 32.1 53.1 34.3ZM78.1 21.6C72.9 21.6 69.7 24.6 69.4 29.8V15.1L62.9 16.1V46.4H69.4V38.7C69.7 43.9 72.9 46.9 78.1 46.9C84.2 46.9 87.9 42.2 87.9 34.3C87.9 26.4 84.2 21.6 78.1 21.6ZM75.2 41.8C71.5 41.8 69.1 38.9 69.1 34.3C69.1 32.1 69.7 30.2 70.7 28.9C71.8 27.5 73.3 26.8 75.2 26.8C79 26.8 81.3 29.6 81.3 34.3C81.3 39 79 41.8 75.2 41.8ZM105.5 21.6C100.3 21.6 97.1 24.6 96.8 29.8V15.1L90.3 16.1V46.4H96.8V38.7C97.1 43.9 100.3 46.9 105.5 46.9C111.6 46.9 115.3 42.2 115.3 34.3C115.3 26.4 111.6 21.6 105.5 21.6ZM102.6 41.8C98.9 41.8 96.5 38.9 96.5 34.3C96.5 32.1 97.1 30.2 98.1 28.9C99.2 27.5 100.7 26.8 102.6 26.8C106.4 26.8 108.7 29.6 108.7 34.3C108.7 39 106.4 41.8 102.6 41.8ZM115.3 22.1H122.2L127.8 46.4H121.6L115.3 22.1ZM145.7 24.6V22.7H144.9V22.3H147V22.7H146.2V24.6H145.7ZM147.1 24.6V22.2H147.9L148.3 23.3C148.4 23.6 148.5 23.7 148.5 23.8C148.5 23.7 148.6 23.6 148.7 23.3L149.1 22.2H149.9V24.6H149.4V22.7L148.7 24.6H148.2L147.6 22.7V24.6H147.1Z" fill="#292929"/>
</svg>
