<svg xmlns="http://www.w3.org/2000/svg" height="323.653" width="1000.046"><path d="M433.352 318.984h-81.01l50.67-313.305h81.006zM727.023 13.339c-15.978-6.34-41.322-13.34-72.66-13.34-80 0-136.336 42.661-136.682 103.653-.664 45 40.335 69.994 71 84.998 31.341 15.332 41.995 25.34 41.995 39.006-.319 20.989-25.326 30.664-48.65 30.664-32.343 0-49.673-4.988-76.009-16.666l-10.667-5.005-11.337 70.33c19 8.656 54.006 16.337 90.35 16.674 85.002 0 140.34-42 140.996-106.997.324-35.666-21.326-62.994-68-85.325-28.334-14.336-45.686-24.002-45.686-38.67.332-13.334 14.677-26.991 46.66-26.991C674.67 65 694.02 71.33 708.68 77.666l7.327 3.327zm107.67 194.652 32.344-87.66c-.337.669 6.658-18.331 10.658-29.995l5.662 26.996 18.672 90.66h-67.335zM934.692 5.68H872.03c-19.323 0-34.004 5.662-42.341 25.995L709.357 318.98h85.002l17.002-46.997h104.011l9.666 46.997h75.008zm-650.013 0-79.336 213.644-8.67-43.33C182.006 125.997 136.005 71.677 84.67 44.667l72.669 273.985h85.667L370.34 5.679z" fill="#00579f"/><path d="M131.672 5.68H1.333L0 12.01c101.672 25.999 169.008 88.67 196.673 163.997L168.339 32.015c-4.665-20.01-19-25.676-36.667-26.336z" fill="#faa61a"/></svg>